<svg width="10" height="6" viewBox="0 0 10 6" fill="none" xmlns="http://www.w3.org/2000/svg">
<path d="M4.99807 -0.00457048C4.89765 -0.00457048 4.80418 0.0114708 4.71765 0.0435543C4.63112 0.0756373 4.54883 0.130638 4.47078 0.208554L0.725569 3.95376C0.610291 4.06918 0.551263 4.21425 0.548486 4.38897C0.545847 4.56355 0.604874 4.71126 0.725569 4.8321C0.846402 4.95279 0.992791 5.01314 1.16474 5.01314C1.33668 5.01314 1.48307 4.95279 1.6039 4.8321L4.99807 1.43772L8.39224 4.8321C8.50765 4.94737 8.65272 5.0064 8.82744 5.00918C9.00203 5.01182 9.14974 4.95279 9.27057 4.8321C9.39126 4.71126 9.45161 4.56487 9.45161 4.39293C9.45161 4.22098 9.39126 4.0746 9.27057 3.95376L5.52536 0.208554C5.4473 0.130638 5.36501 0.0756373 5.27849 0.0435543C5.19196 0.0114708 5.09849 -0.00457048 4.99807 -0.00457048Z" fill="#F3F3F3"/>
</svg>
