<svg width="20" height="21" viewBox="0 0 20 21" fill="none" xmlns="http://www.w3.org/2000/svg">
<mask id="mask0_139_974" style="mask-type:alpha" maskUnits="userSpaceOnUse" x="0" y="0" width="20" height="21">
<rect y="0.60141" width="20" height="20" fill="#D9D9D9"/>
</mask>
<g mask="url(#mask0_139_974)">
<path d="M7.5 15.6014C7.0875 15.6014 6.73438 15.4545 6.44062 15.1608C6.14687 14.867 6 14.5139 6 14.1014V4.10141C6 3.68891 6.14687 3.33579 6.44062 3.04204C6.73438 2.74829 7.0875 2.60141 7.5 2.60141H15.5C15.9125 2.60141 16.2656 2.74829 16.5594 3.04204C16.8531 3.33579 17 3.68891 17 4.10141V14.1014C17 14.5139 16.8531 14.867 16.5594 15.1608C16.2656 15.4545 15.9125 15.6014 15.5 15.6014H7.5ZM7.5 14.1014H15.5V4.10141H7.5V14.1014ZM4.5 18.6014C4.0875 18.6014 3.73437 18.4545 3.44062 18.1608C3.14687 17.867 3 17.5139 3 17.1014V5.60141H4.5V17.1014H14V18.6014H4.5Z" fill="white"/>
</g>
</svg>
