<svg width="24" height="25" viewBox="0 0 24 25" fill="none" xmlns="http://www.w3.org/2000/svg">
<g clip-path="url(#clip0_139_1160)">
<path d="M12 0.60141C5.37264 0.60141 0 5.97405 0 12.6014C0 18.2289 3.87456 22.9512 9.10128 24.2481V16.2686H6.62688V12.6014H9.10128V11.0212C9.10128 6.93693 10.9498 5.04381 14.9597 5.04381C15.72 5.04381 17.0318 5.19309 17.5685 5.34189V8.66589C17.2853 8.63613 16.7933 8.62125 16.1822 8.62125C14.2147 8.62125 13.4544 9.36669 13.4544 11.3044V12.6014H17.3741L16.7006 16.2686H13.4544V24.5136C19.3963 23.796 24.0005 18.7368 24.0005 12.6014C24 5.97405 18.6274 0.60141 12 0.60141Z" fill="white"/>
</g>
<defs>
<clipPath id="clip0_139_1160">
<rect width="24" height="24" fill="white" transform="translate(0 0.60141)"/>
</clipPath>
</defs>
</svg>
