<svg width="34" height="34" viewBox="0 0 34 34" fill="none" xmlns="http://www.w3.org/2000/svg">
<path d="M0 6.4C0 4.15979 0 3.03969 0.435974 2.18404C0.819467 1.43139 1.43139 0.819467 2.18404 0.435974C3.03969 0 4.15979 0 6.4 0H27.6C29.8402 0 30.9603 0 31.816 0.435974C32.5686 0.819467 33.1805 1.43139 33.564 2.18404C34 3.03969 34 4.15979 34 6.4V27.6C34 29.8402 34 30.9603 33.564 31.816C33.1805 32.5686 32.5686 33.1805 31.816 33.564C30.9603 34 29.8402 34 27.6 34H6.4C4.15979 34 3.03969 34 2.18404 33.564C1.43139 33.1805 0.819467 32.5686 0.435974 31.816C0 30.9603 0 29.8402 0 27.6V6.4Z" fill="#121212"/>
<circle cx="17" cy="17" r="7" fill="#88FF01"/>
</svg>
