<svg width="14" height="17" viewBox="0 0 14 17" fill="none" xmlns="http://www.w3.org/2000/svg">
<path d="M11.3379 16.1273C10.7141 16.1273 10.1845 15.9092 9.74913 15.4729C9.31385 15.0367 9.09621 14.507 9.09621 13.8838C9.09621 13.7588 9.13197 13.5493 9.2035 13.2554L4.19392 10.1625C3.99308 10.357 3.76107 10.5097 3.49788 10.6208C3.23482 10.732 2.95295 10.7875 2.65225 10.7875C2.03128 10.7875 1.50343 10.5685 1.06871 10.1304C0.633987 9.69237 0.416626 9.16355 0.416626 8.54397C0.416626 7.92438 0.633987 7.39556 1.06871 6.95751C1.50343 6.51945 2.03128 6.30042 2.65225 6.30042C2.9542 6.30042 3.23642 6.35598 3.49892 6.46709C3.76142 6.5782 3.99308 6.73098 4.19392 6.92542L9.2035 3.84042C9.17045 3.73792 9.14427 3.63536 9.12496 3.53272C9.10579 3.43008 9.09621 3.32056 9.09621 3.20417C9.09621 2.58098 9.31447 2.05126 9.751 1.61501C10.1877 1.17876 10.7179 0.960632 11.3416 0.960632C11.9654 0.960632 12.4949 1.17897 12.9302 1.61563C13.3656 2.05216 13.5833 2.5823 13.5833 3.20605C13.5833 3.8298 13.3652 4.35938 12.9289 4.7948C12.4927 5.23008 11.9629 5.44772 11.3398 5.44772C11.0363 5.44772 10.755 5.39084 10.496 5.27709C10.2368 5.16334 10.0068 5.00924 9.806 4.8148L4.79642 7.90772C4.82947 8.01035 4.85565 8.11292 4.87496 8.21542C4.89413 8.31806 4.90371 8.42758 4.90371 8.54397C4.90371 8.66035 4.89413 8.76987 4.87496 8.87251C4.85565 8.97501 4.82947 9.07758 4.79642 9.18022L9.806 12.2731C10.0068 12.0787 10.2371 11.9246 10.4968 11.8108C10.7566 11.6971 11.0375 11.6402 11.3398 11.6402C11.9629 11.6402 12.4927 11.8585 12.9289 12.295C13.3652 12.7317 13.5833 13.2619 13.5833 13.8856C13.5833 14.5094 13.365 15.0389 12.9283 15.4742C12.4918 15.9096 11.9616 16.1273 11.3379 16.1273ZM11.3398 15.044C11.6685 15.044 11.9441 14.9328 12.1664 14.7104C12.3888 14.4881 12.5 14.2125 12.5 13.8838C12.5 13.555 12.3888 13.2795 12.1664 13.0571C11.9441 12.8346 11.6685 12.7233 11.3398 12.7233C11.011 12.7233 10.7354 12.8346 10.5131 13.0571C10.2906 13.2795 10.1793 13.555 10.1793 13.8838C10.1793 14.2125 10.2906 14.4881 10.5131 14.7104C10.7354 14.9328 11.011 15.044 11.3398 15.044ZM2.65225 9.70417C2.98322 9.70417 3.26065 9.59299 3.48454 9.37063C3.70857 9.14827 3.82058 8.87272 3.82058 8.54397C3.82058 8.21522 3.70857 7.93966 3.48454 7.7173C3.26065 7.49494 2.98322 7.38376 2.65225 7.38376C2.32572 7.38376 2.05204 7.49494 1.83121 7.7173C1.61038 7.93966 1.49996 8.21522 1.49996 8.54397C1.49996 8.87272 1.61038 9.14827 1.83121 9.37063C2.05204 9.59299 2.32572 9.70417 2.65225 9.70417ZM11.3398 4.36459C11.6685 4.36459 11.9441 4.25334 12.1664 4.03084C12.3888 3.80848 12.5 3.53292 12.5 3.20417C12.5 2.87542 12.3888 2.59987 12.1664 2.37751C11.9441 2.15515 11.6685 2.04397 11.3398 2.04397C11.011 2.04397 10.7354 2.15515 10.5131 2.37751C10.2906 2.59987 10.1793 2.87542 10.1793 3.20417C10.1793 3.53292 10.2906 3.80848 10.5131 4.03084C10.7354 4.25334 11.011 4.36459 11.3398 4.36459Z" fill="#B2B2B2"/>
</svg>
