<svg width="16" height="15" viewBox="0 0 16 15" fill="none" xmlns="http://www.w3.org/2000/svg">
<path d="M8 14.671C7.02027 14.671 6.09506 14.484 5.22437 14.1101C4.35368 13.7361 3.59111 13.2219 2.93666 12.5676C2.28236 11.9132 1.76819 11.1506 1.39416 10.2799C1.02027 9.40922 0.833328 8.48401 0.833328 7.50429C0.833328 6.51068 1.02027 5.582 1.39416 4.71825C1.76819 3.8545 2.28236 3.0954 2.93666 2.44095C3.59111 1.78665 4.35368 1.27248 5.22437 0.898454C6.09506 0.524565 7.02027 0.337621 8 0.337621C8.99361 0.337621 9.92229 0.524565 10.786 0.898454C11.6498 1.27248 12.4089 1.78665 13.0633 2.44095C13.7176 3.0954 14.2318 3.8545 14.6058 4.71825C14.9797 5.582 15.1667 6.51068 15.1667 7.50429C15.1667 8.48401 14.9797 9.40922 14.6058 10.2799C14.2318 11.1506 13.7176 11.9132 13.0633 12.5676C12.4089 13.2219 11.6498 13.7361 10.786 14.1101C9.92229 14.484 8.99361 14.671 8 14.671ZM11.4406 6.15179L12.9071 5.7222L13.4921 3.99637C13.0754 3.33179 12.5556 2.76741 11.9327 2.30325C11.3098 1.83894 10.6015 1.48873 9.8077 1.25262L8.33333 2.30887V3.95137L11.4406 6.15179ZM4.53854 6.13095L7.66666 3.95137V2.30887L6.19229 1.25262C5.39854 1.48873 4.69208 1.83547 4.07291 2.29283C3.45375 2.75005 2.94277 3.31095 2.53999 3.97554L3.12499 5.7222L4.53854 6.13095ZM2.7725 11.3824L4.64583 11.3922L5.52562 10.2512L4.38937 6.83116L2.96479 6.42262L1.49999 7.52033C1.52777 8.23394 1.63701 8.90811 1.8277 9.54283C2.0184 10.1774 2.33333 10.7906 2.7725 11.3824ZM8 14.0043C8.36111 14.0043 8.72597 13.9704 9.09458 13.9026C9.46319 13.8347 9.85312 13.7398 10.2644 13.618L10.851 11.8714L9.95041 10.6453H6.02875L5.18104 11.8714L5.7677 13.618C6.14687 13.7398 6.52347 13.8347 6.89749 13.9026C7.27138 13.9704 7.63888 14.0043 8 14.0043ZM6.13145 9.97866H9.90062L10.9648 6.61491L8 4.52679L5.00312 6.61491L6.13145 9.97866ZM13.2275 11.4032C13.6667 10.8114 13.9816 10.1982 14.1723 9.56366C14.363 8.92894 14.4722 8.25477 14.5 7.54116L13.0673 6.42262L11.6106 6.79908L10.4744 10.2512L11.3542 11.3922L13.2275 11.4032Z" fill="#F3F3F3"/>
</svg>
