<svg width="28" height="27" viewBox="0 0 28 27" fill="none" xmlns="http://www.w3.org/2000/svg">
<path d="M14.436 22.239C14.021 21.9875 13.5006 21.9875 13.0856 22.239L6.72098 26.0967C5.73447 26.6946 4.51493 25.81 4.77707 24.6866L6.46444 17.4553C6.57406 16.9856 6.41511 16.4937 6.05133 16.1769L0.449007 11.2981C-0.418786 10.5424 0.0477255 9.11497 1.19433 9.0176L8.57737 8.39064C9.05814 8.34981 9.47698 8.0466 9.66588 7.60261L12.5634 0.792701C13.0131 -0.264235 14.5111 -0.264233 14.9608 0.792703L17.8583 7.60261C18.0472 8.0466 18.4661 8.34981 18.9468 8.39064L26.3299 9.0176C27.4765 9.11497 27.943 10.5424 27.0752 11.2981L21.4729 16.1769C21.1091 16.4937 20.9501 16.9856 21.0598 17.4554L22.7473 24.6871C23.0094 25.8104 21.79 26.695 20.8035 26.0973L14.436 22.239Z" fill="#E0E8F1"/>
</svg>
