<svg width="25" height="25" viewBox="0 0 25 25" fill="none" xmlns="http://www.w3.org/2000/svg">
<g clip-path="url(#clip0_139_1163)">
<path fill-rule="evenodd" clip-rule="evenodd" d="M24.5 12.6014C24.5 19.2288 19.1274 24.6014 12.5 24.6014C5.87258 24.6014 0.5 19.2288 0.5 12.6014C0.5 5.97399 5.87258 0.60141 12.5 0.60141C19.1274 0.60141 24.5 5.97399 24.5 12.6014ZM12.93 9.46033C11.7628 9.9458 9.43013 10.9506 5.93189 12.4747C5.36383 12.7006 5.06626 12.9216 5.03917 13.1377C4.99338 13.5029 5.45071 13.6467 6.07347 13.8425C6.15818 13.8692 6.24595 13.8968 6.33594 13.926C6.94863 14.1252 7.77282 14.3582 8.20129 14.3674C8.58994 14.3758 9.02372 14.2156 9.50264 13.8867C12.7712 11.6804 14.4584 10.5652 14.5643 10.5412C14.639 10.5242 14.7426 10.5029 14.8128 10.5653C14.8829 10.6276 14.876 10.7457 14.8686 10.7774C14.8233 10.9705 13.0281 12.6395 12.0991 13.5032C11.8095 13.7724 11.6041 13.9634 11.5621 14.007C11.468 14.1047 11.3721 14.1972 11.28 14.286C10.7108 14.8347 10.2839 15.2462 11.3036 15.9182C11.7936 16.2411 12.1858 16.5081 12.577 16.7746C13.0042 17.0655 13.4303 17.3557 13.9816 17.7171C14.1221 17.8091 14.2562 17.9048 14.3869 17.9979C14.8841 18.3524 15.3307 18.6708 15.8826 18.62C16.2032 18.5905 16.5345 18.289 16.7027 17.3898C17.1002 15.2645 17.8816 10.6599 18.0622 8.76238C18.078 8.59614 18.0581 8.38338 18.0421 8.28998C18.0262 8.19658 17.9928 8.06351 17.8714 7.96501C17.7276 7.84834 17.5056 7.82374 17.4064 7.82549C16.955 7.83344 16.2625 8.07422 12.93 9.46033Z" fill="white"/>
</g>
<defs>
<clipPath id="clip0_139_1163">
<rect width="24" height="24" fill="white" transform="translate(0.5 0.60141)"/>
</clipPath>
</defs>
</svg>
