<svg width="20" height="21" viewBox="0 0 20 21" fill="none" xmlns="http://www.w3.org/2000/svg">
<mask id="mask0_130_1033" style="mask-type:alpha" maskUnits="userSpaceOnUse" x="0" y="0" width="20" height="21">
<rect y="0.341125" width="20" height="20" fill="#D9D9D9"/>
</mask>
<g mask="url(#mask0_130_1033)">
<path d="M2.75642 12.9245C2.42947 12.9245 2.12447 12.7829 1.84142 12.4997C1.55822 12.2166 1.41663 11.9116 1.41663 11.5847V10.7178C1.41663 10.6164 1.4244 10.5227 1.43996 10.4366C1.45538 10.3506 1.48392 10.2712 1.52558 10.1984L3.89308 4.62551C4.01239 4.34509 4.23683 4.1269 4.56642 3.97093C4.896 3.81495 5.2135 3.73697 5.51892 3.73697L14.3237 3.7578V12.9245L9.601 17.6472C9.37975 17.8683 9.13239 18.0157 8.85892 18.0895C8.58545 18.1632 8.34538 18.1397 8.13871 18.0191C7.9319 17.8982 7.80635 17.6944 7.76204 17.4076C7.71774 17.1208 7.7292 16.8027 7.79642 16.4532L8.46475 12.9245H2.75642ZM13.2404 12.4757V4.84114H5.22433C5.16558 4.84114 5.10552 4.85718 5.04413 4.88926C4.9826 4.92134 4.93579 4.97475 4.90371 5.04947L2.49996 10.6536V11.5847C2.49996 11.6595 2.52399 11.721 2.57204 11.7691C2.6201 11.8171 2.68156 11.8411 2.75642 11.8411H9.75308L8.81246 16.8668L13.2404 12.4757ZM17.2435 3.7578C17.63 3.7578 17.95 3.88898 18.2033 4.15134C18.4566 4.41371 18.5833 4.72912 18.5833 5.09759V11.5847C18.5833 11.9531 18.4566 12.2686 18.2033 12.5309C17.95 12.7933 17.63 12.9245 17.2435 12.9245H14.3237V11.8411H17.2435C17.3184 11.8411 17.3798 11.8171 17.4279 11.7691C17.4759 11.721 17.5 11.6595 17.5 11.5847V5.09759C17.5 5.02273 17.4759 4.96127 17.4279 4.91322C17.3798 4.86516 17.3184 4.84114 17.2435 4.84114H14.3237V3.7578H17.2435Z" fill="white"/>
</g>
</svg>
