<svg width="18" height="15" viewBox="0 0 18 15" fill="none" xmlns="http://www.w3.org/2000/svg" style="transform: rotate(180deg);">
<path d="M16.2435 5.7578C16.5704 5.7578 16.8754 5.89592 17.1585 6.17217C17.4417 6.44828 17.5833 6.75675 17.5833 7.09759V7.96446C17.5833 8.06488 17.5742 8.15488 17.556 8.23446C17.5378 8.31405 17.5106 8.39717 17.4743 8.48384L15.1073 14.0559C15.0016 14.323 14.8291 14.5345 14.5898 14.6905C14.3504 14.8465 14.0791 14.9245 13.7756 14.9245H5.69538C5.32149 14.9245 5.00475 14.7981 4.74517 14.5455C4.48558 14.2927 4.35579 13.9724 4.35579 13.5847V6.31863C4.35579 6.13168 4.39343 5.95252 4.46871 5.78113C4.54399 5.6096 4.64308 5.46238 4.766 5.33946L8.84121 1.27217C9.04857 1.05967 9.2994 0.921338 9.59371 0.857171C9.88802 0.793143 10.1281 0.818769 10.3139 0.934046C10.5693 1.07724 10.7275 1.29571 10.7883 1.58946C10.8493 1.88335 10.853 2.17557 10.7995 2.46613L10.2145 5.7578H16.2435ZM1.75642 14.9245C1.39642 14.9245 1.08308 14.7912 0.816418 14.5247C0.54989 14.258 0.416626 13.9447 0.416626 13.5847V7.09759C0.416626 6.73759 0.54989 6.42425 0.816418 6.15759C1.08308 5.89106 1.39642 5.7578 1.75642 5.7578H1.93267C2.29267 5.7578 2.606 5.89106 2.87267 6.15759C3.1392 6.42425 3.27246 6.73759 3.27246 7.09759V13.5928C3.27246 13.9528 3.1392 14.2647 2.87267 14.5286C2.606 14.7925 2.29267 14.9245 1.93267 14.9245H1.75642Z" fill="white"/>
</svg>
