<svg width="24" height="25" viewBox="0 0 24 25" fill="none" xmlns="http://www.w3.org/2000/svg">
<path d="M0 24.6014L1.687 18.4384C0.646 16.6344 0.099 14.5894 0.1 12.4924C0.103 5.93641 5.438 0.60141 11.993 0.60141C15.174 0.60241 18.16 1.84141 20.406 4.08941C22.651 6.33741 23.887 9.32541 23.886 12.5034C23.883 19.0604 18.548 24.3954 11.993 24.3954C10.003 24.3944 8.042 23.8954 6.305 22.9474L0 24.6014ZM6.597 20.7944C8.273 21.7894 9.873 22.3854 11.989 22.3864C17.437 22.3864 21.875 17.9524 21.878 12.5014C21.88 7.03941 17.463 2.61141 11.997 2.60941C6.545 2.60941 2.11 7.04341 2.108 12.4934C2.107 14.7184 2.759 16.3844 3.854 18.1274L2.855 21.7754L6.597 20.7944ZM17.984 15.3304C17.91 15.2064 17.712 15.1324 17.414 14.9834C17.117 14.8344 15.656 14.1154 15.383 14.0164C15.111 13.9174 14.913 13.8674 14.714 14.1654C14.516 14.4624 13.946 15.1324 13.773 15.3304C13.6 15.5284 13.426 15.5534 13.129 15.4044C12.832 15.2554 11.874 14.9424 10.739 13.9294C9.856 13.1414 9.259 12.1684 9.086 11.8704C8.913 11.5734 9.068 11.4124 9.216 11.2644C9.35 11.1314 9.513 10.9174 9.662 10.7434C9.813 10.5714 9.862 10.4474 9.962 10.2484C10.061 10.0504 10.012 9.87641 9.937 9.72741C9.862 9.57941 9.268 8.11641 9.021 7.52141C8.779 6.94241 8.534 7.02041 8.352 7.01141L7.782 7.00141C7.584 7.00141 7.262 7.07541 6.99 7.37341C6.718 7.67141 5.95 8.38941 5.95 9.85241C5.95 11.3154 7.015 12.7284 7.163 12.9264C7.312 13.1244 9.258 16.1264 12.239 17.4134C12.948 17.7194 13.502 17.9024 13.933 18.0394C14.645 18.2654 15.293 18.2334 15.805 18.1574C16.376 18.0724 17.563 17.4384 17.811 16.7444C18.059 16.0494 18.059 15.4544 17.984 15.3304Z" fill="white"/>
</svg>
