<svg width="350" height="180" viewBox="0 0 350 180" fill="none" xmlns="http://www.w3.org/2000/svg">
<path opacity="0.0144928" d="M51.9716 221.206C41.3311 223.656 30.3537 218.768 25.0542 209.222L-2.04546 160.404C-5.17947 154.758 -5.95798 148.103 -4.21166 141.887L22.2181 47.8008C23.5915 42.9119 26.45 38.5705 30.3985 35.3771L92.6372 -14.9597C99.7964 -20.7498 109.597 -22.0371 118.009 -18.292L158.848 -0.109116C167.26 3.63593 172.861 11.7809 173.349 20.9755L177.587 100.91C177.856 105.981 176.543 111.01 173.828 115.302L121.594 197.899C118.143 203.357 112.676 207.231 106.384 208.68L51.9716 221.206Z" stroke="url(#paint0_linear_338_1240)" stroke-opacity="0.2"/>
<path opacity="0.0289855" d="M63.6678 223.341C53.1932 226.32 42.0099 222.027 36.2187 212.805L6.80412 165.963C3.3651 160.487 2.23076 153.873 3.6484 147.563L24.8406 53.244C25.9572 48.2744 28.5949 43.7764 32.3867 40.3757L91.3503 -12.506C98.196 -18.6457 107.903 -20.435 116.488 -17.1395L157.879 -1.25122C166.464 2.0442 172.48 9.86934 173.459 19.0127L181.893 97.7658C182.435 102.83 181.386 107.938 178.89 112.378L131.527 196.651C128.359 202.289 123.09 206.445 116.87 208.214L63.6678 223.341Z" stroke="url(#paint1_linear_338_1240)" stroke-opacity="0.2"/>
<path opacity="0.0434783" d="M75.3344 225.109C65.0522 228.605 53.6953 224.915 47.432 216.043L15.8346 171.284C12.0995 165.993 10.6113 159.439 11.6953 153.054L27.6988 58.7898C28.554 53.7528 30.9623 49.1093 34.587 45.5087L90.1807 -9.71517C96.6961 -16.1872 106.284 -18.4721 115.018 -15.6342L156.833 -2.04775C165.567 0.790116 171.98 8.27413 173.447 17.3398L185.964 94.694C186.78 99.7374 185.999 104.91 183.73 109.487L141.27 195.155C138.394 200.958 133.337 205.386 127.206 207.471L75.3344 225.109Z" stroke="url(#paint2_linear_338_1240)" stroke-opacity="0.2"/>
<path opacity="0.057971" d="M86.9511 226.514C76.8871 230.516 65.3895 227.435 58.6748 218.937L25.0314 176.359C21.0102 171.27 19.1711 164.794 19.9174 158.351L30.7968 64.4243C31.3865 59.3335 33.5577 54.5558 37.0048 50.7636L89.1461 -6.59689C95.3151 -13.3833 104.758 -16.1561 113.616 -13.7824L155.73 -2.49812C164.589 -0.124428 171.38 6.99815 173.329 15.9599L189.805 91.7062C190.894 96.7139 190.385 101.937 188.351 106.641L150.809 193.423C148.234 199.376 143.403 204.065 137.376 206.462L86.9511 226.514Z" stroke="url(#paint3_linear_338_1240)" stroke-opacity="0.2"/>
<path opacity="0.0724638" d="M98.4984 227.562C88.6776 232.056 77.0722 229.59 69.9284 221.489L34.3801 181.182C30.0833 176.31 27.8973 169.931 28.3028 163.447L34.1379 70.1342C34.4588 65.0033 36.3855 60.1033 39.6453 56.1281L88.2638 -3.16123C94.0713 -10.2433 103.344 -13.4949 112.303 -11.5907L154.59 -2.60218C163.549 -0.697973 170.697 6.04398 173.122 14.8759L193.422 88.8143C194.783 93.7718 194.55 99.0318 192.756 103.85L160.133 191.469C157.867 197.556 153.275 202.495 147.368 205.198L98.4984 227.562Z" stroke="url(#paint4_linear_338_1240)" stroke-opacity="0.2"/>
<path opacity="0.0869565" d="M109.956 228.261C100.403 233.233 88.7227 231.383 81.1732 223.703L43.8644 185.746C39.3037 181.106 36.7758 174.842 36.8381 168.337L37.7236 75.9053C37.773 70.7483 39.4485 65.7384 42.5115 61.5892L87.549 0.580253C92.981 -6.778 102.059 -10.498 111.093 -9.06724L153.431 -2.36152C162.464 -0.930769 169.949 5.41249 172.841 14.0892L196.821 86.0294C198.452 90.9221 198.498 96.2046 196.951 101.125L169.23 189.305C167.279 195.512 162.94 200.688 157.168 203.691L109.956 228.261Z" stroke="url(#paint5_linear_338_1240)" stroke-opacity="0.2"/>
<path opacity="0.101449" d="M121.307 228.62C112.045 234.053 100.323 232.821 92.3926 225.58L53.471 190.046C48.6587 185.653 45.7949 179.523 45.5128 173.013L41.5572 81.7239C41.3332 76.5548 42.7515 71.4474 45.6086 67.1339L87.0191 4.61543C92.0625 -2.99881 100.923 -7.17568 110.006 -6.22102L152.273 -1.77849C161.357 -0.823821 169.155 5.10388 172.505 13.6003L200.012 83.3624C201.91 88.1757 202.235 93.4662 200.941 98.4758L178.092 186.948C176.463 193.257 172.387 198.657 166.767 201.954L121.307 228.62Z" stroke="url(#paint6_linear_338_1240)" stroke-opacity="0.2"/>
<path opacity="0.115942" d="M132.535 228.646C123.585 234.524 111.855 233.909 103.569 227.128L63.1848 194.079C58.1341 189.946 54.9412 183.968 54.3144 177.472L45.64 87.5757C45.1415 82.4088 46.2969 77.217 48.9397 72.7492L86.6889 8.93119C91.332 1.08168 99.9508 -3.53921 109.058 -3.06191L151.137 -0.856671C160.244 -0.37937 168.333 5.11711 172.13 13.409L203.002 80.8233C205.163 85.5428 205.769 90.8269 204.733 95.9134L186.71 184.411C185.407 190.806 181.607 196.417 176.152 200L132.535 228.646Z" stroke="url(#paint7_linear_338_1240)" stroke-opacity="0.2"/>
<path opacity="0.130435" d="M143.619 228.351C135.004 234.655 123.298 234.655 114.683 228.351L72.9889 197.841C67.7137 193.981 64.1997 188.173 63.2287 181.709L49.9707 93.447C49.1971 88.2967 50.0849 83.0337 52.5052 78.4221L86.5711 13.514C90.8031 5.45053 99.1583 0.399597 108.265 0.399597H150.037C159.144 0.399597 167.499 5.45053 171.731 13.514L205.797 78.4221C208.217 83.0337 209.105 88.2966 208.331 93.447L195.073 181.709C194.102 188.173 190.588 193.981 185.313 197.841L143.619 228.351Z" stroke="url(#paint8_linear_338_1240)" stroke-opacity="0.2"/>
<path opacity="0.144928" d="M154.544 227.745C146.284 234.457 134.636 235.067 125.719 229.256L82.8684 201.331C77.3832 197.756 73.5569 192.134 72.2433 185.72L54.5491 99.3241C53.5007 94.2046 54.1166 88.884 56.3069 84.1394L86.679 18.3495C90.4903 10.0939 98.5603 4.62801 107.641 4.15212L148.994 1.98491C158.074 1.50902 166.671 6.10137 171.325 13.9134L208.407 76.1682C211.082 80.6578 212.25 85.8849 211.743 91.0859L203.176 178.858C202.54 185.375 199.323 191.365 194.241 195.494L154.544 227.745Z" stroke="url(#paint9_linear_338_1240)" stroke-opacity="0.2"/>
<path opacity="0.15942" d="M165.296 226.841C157.409 233.94 145.85 235.154 136.66 229.851L92.8084 204.545C87.1285 201.268 82.9996 195.849 81.3459 189.504L59.3744 105.193C58.0521 100.119 58.3926 94.7544 60.346 89.8882L87.0254 23.4227C90.4075 14.9971 98.1718 9.13257 107.201 8.18355L148.024 3.8929C157.053 2.94387 165.867 7.06596 170.927 14.6043L210.843 74.0704C213.765 78.4242 215.213 83.6007 214.975 88.8389L211.013 175.875C210.715 182.426 207.802 188.584 202.928 192.971L165.296 226.841Z" stroke="url(#paint10_linear_338_1240)" stroke-opacity="0.2"/>
<path opacity="0.173913" d="M175.858 225.651C168.364 233.115 156.926 234.927 147.491 230.144L102.794 207.484C96.9347 204.514 92.514 199.316 90.5236 193.056L64.4445 111.04C62.8501 106.026 62.9123 100.631 64.6222 95.655L87.6215 28.7177C90.5671 20.1446 98.0058 13.8987 106.959 12.4806L147.145 6.11581C156.098 4.69773 165.103 8.3393 170.554 15.5825L213.112 72.1364C216.276 76.3408 218.002 81.4521 218.035 86.7139L218.577 172.774C218.618 179.343 216.02 185.653 211.366 190.288L175.858 225.651Z" stroke="url(#paint11_linear_338_1240)" stroke-opacity="0.2"/>
<path opacity="0.188406" d="M186.216 224.189C179.131 231.996 167.845 234.395 158.196 230.145L112.807 210.149C106.786 207.496 102.085 202.533 99.762 196.377L69.7552 116.853C67.891 111.912 67.6729 106.502 69.1333 101.427L88.476 34.219C90.9792 25.5213 98.0735 18.9122 106.926 17.0304L146.372 8.64608C155.225 6.76434 164.394 9.91655 170.218 16.8441L215.225 70.3747C218.623 74.4164 220.624 79.4478 220.931 84.7194L225.864 169.573C226.246 176.142 223.969 182.588 219.548 187.46L186.216 224.189Z" stroke="url(#paint12_linear_338_1240)" stroke-opacity="0.2"/>
<path opacity="0.202899" d="M196.36 222.468C189.698 230.596 178.595 233.571 168.762 229.862L122.837 212.538C116.671 210.212 111.701 205.5 109.052 199.466L75.306 122.617C73.1753 117.765 72.6753 112.352 73.881 107.192L89.6013 39.9094C91.6572 31.1103 98.3895 24.1571 107.118 21.8184L145.723 11.4741C154.451 9.13534 163.758 11.7908 169.938 18.3831L217.194 68.7914C220.818 72.6576 223.091 77.5947 223.672 82.8621L232.872 166.288C233.594 172.839 231.647 179.405 227.47 184.502L196.36 222.468Z" stroke="url(#paint13_linear_338_1240)" stroke-opacity="0.2"/>
<path opacity="0.217391" d="M206.273 220.503C200.051 228.929 189.16 232.468 179.173 229.308L132.866 214.656C126.571 212.665 121.347 208.217 118.377 202.322L81.0896 128.32C78.6964 123.57 77.9138 118.17 78.86 112.937L91.0027 45.7723C92.6076 36.895 98.9612 29.6179 107.541 26.8302L145.211 14.5902C153.791 11.8025 163.209 13.9553 169.725 20.1939L219.027 67.3937C222.869 71.0717 225.409 75.9001 226.265 81.1494L239.597 162.935C240.659 169.451 239.046 176.119 235.125 181.43L206.273 220.503Z" stroke="url(#paint14_linear_338_1240)" stroke-opacity="0.2"/>
<path opacity="0.231884" d="M215.947 218.309C210.176 227.009 199.527 231.097 189.417 228.493L142.879 216.505C136.475 214.855 131.01 210.686 127.726 204.947L87.1021 133.949C84.451 129.316 83.3857 123.943 84.0683 118.649L92.6882 51.7905C93.8398 42.8584 99.7991 35.2781 108.207 32.0506L144.852 17.9839C153.26 14.7564 162.761 16.4021 169.593 22.2694L220.736 66.1871C224.786 69.6648 227.589 74.3702 228.719 79.5875L246.037 159.531C247.437 165.994 246.165 172.749 242.509 178.26L215.947 218.309Z" stroke="url(#paint15_linear_338_1240)" stroke-opacity="0.2"/>
<path opacity="0.246377" d="M225.37 215.903C220.064 224.852 209.684 229.473 199.483 227.429L152.864 218.086C146.368 216.785 140.677 212.908 137.087 207.341L93.3388 139.493C90.4351 134.989 89.0878 129.658 89.5032 124.316L94.6648 57.946C95.3619 48.9824 100.913 41.1206 109.126 37.4638L144.659 21.6434C152.873 17.9866 162.429 19.1222 169.557 24.602L222.333 65.1764C226.581 68.4423 229.641 73.0107 231.045 78.1818L252.193 156.092C253.928 162.486 253.001 169.309 249.622 175.007L225.37 215.903Z" stroke="url(#paint16_linear_338_1240)" stroke-opacity="0.2"/>
<path opacity="0.26087" d="M234.534 213.301C229.701 222.473 219.618 227.611 209.356 226.129L162.804 219.407C156.236 218.458 150.334 214.886 146.447 209.507L99.7917 144.939C96.6415 140.579 95.0136 135.304 95.159 129.927L96.9361 64.2218C97.1788 55.2501 102.308 47.1291 110.304 43.0546L144.644 25.5574C152.641 21.4829 162.226 22.1069 169.627 27.1841L223.828 64.3669C228.263 67.4096 231.574 71.8274 233.25 76.9384L258.063 152.636C260.13 158.942 259.551 165.816 256.458 171.688L234.534 213.301Z" stroke="url(#paint17_linear_338_1240)" stroke-opacity="0.2"/>
<path opacity="0.275362" d="M243.429 210.518C239.079 219.889 229.319 225.524 219.028 224.606L172.687 220.469C166.066 219.878 159.969 216.622 155.795 211.448L106.455 150.275C103.065 146.073 101.159 140.868 101.032 135.47L99.5071 70.5992C99.2966 61.6427 103.992 53.2854 111.75 48.8059L144.821 29.7125C152.58 25.233 162.165 25.3457 169.816 30.0062L225.233 63.7619C229.845 66.5707 233.399 70.8243 235.344 75.8613L263.651 149.177C266.045 155.379 265.817 162.287 263.018 168.317L243.429 210.518Z" stroke="url(#paint18_linear_338_1240)" stroke-opacity="0.2"/>
<path opacity="0.289855" d="M252.049 207.572C248.19 217.115 238.777 223.228 228.489 222.872L182.5 221.281C175.844 221.051 169.569 218.121 165.119 213.166L113.321 155.492C109.699 151.459 107.517 146.339 107.116 140.933L102.381 77.0607C101.72 68.1424 105.97 59.5724 113.47 54.7018L145.2 34.096C152.7 29.2255 162.258 28.8282 170.136 33.0596L226.561 63.3648C231.336 65.9297 235.126 70.0059 237.337 74.9552L268.957 145.733C271.674 151.814 271.798 158.738 269.301 164.912L252.049 207.572Z" stroke="url(#paint19_linear_338_1240)" stroke-opacity="0.2"/>
<path opacity="0.304348" d="M260.387 204.481C257.025 214.17 247.983 220.739 237.729 220.943L192.229 221.848C185.558 221.98 179.122 219.387 174.407 214.667L120.382 160.578C116.536 156.728 114.081 151.706 113.406 146.306L105.558 83.5882C104.45 74.7311 108.247 65.9722 115.468 60.7256L145.792 38.6942C153.013 33.4475 162.517 32.5435 170.598 36.3344L227.821 63.1784C232.748 65.4897 236.765 69.3759 239.239 74.2236L273.985 142.319C277.018 148.262 277.495 155.184 275.308 161.487L260.387 204.481Z" stroke="url(#paint20_linear_338_1240)" stroke-opacity="0.2"/>
<path opacity="0.318841" d="M268.44 201.261C265.579 211.07 256.93 218.074 246.74 218.833L201.863 222.177C195.197 222.673 188.618 220.425 183.651 215.953L127.63 165.524C123.569 161.868 120.846 156.96 119.895 151.579L109.043 90.1637C107.492 81.3905 110.827 72.4671 117.75 66.8603L146.607 43.4928C153.531 37.886 162.952 36.4797 171.212 39.8202L229.028 63.2045C234.094 65.2534 238.329 68.937 241.061 73.6697L278.741 138.951C282.082 144.74 282.913 151.642 281.041 158.059L268.44 201.261Z" stroke="url(#paint21_linear_338_1240)" stroke-opacity="0.2"/>
<path opacity="0.333333" d="M276.2 197.93C273.844 207.833 265.61 215.247 255.515 216.555L211.388 222.275C204.747 223.136 198.044 221.241 192.836 217.031L135.054 170.32C130.787 166.871 127.801 162.089 126.575 156.74L112.831 96.7694C110.844 88.1022 113.71 79.0391 120.318 73.0892L147.652 48.4772C154.26 42.5273 163.573 40.6248 171.985 43.5063L230.191 63.4443C235.382 65.2224 239.826 68.6916 242.81 73.2958L283.226 135.644C286.868 141.263 288.052 148.128 286.501 154.642L276.2 197.93Z" stroke="url(#paint22_linear_338_1240)" stroke-opacity="0.2"/>
<path opacity="0.347826" d="M283.667 194.506C281.817 204.476 274.017 212.276 264.047 214.125L220.794 222.151C214.198 223.375 207.388 221.84 201.955 217.906L142.645 174.958C138.183 171.726 134.94 167.084 133.44 161.782L116.923 103.388C114.508 94.8483 116.899 85.6704 123.174 79.3952L148.937 53.6325C155.212 47.3574 164.39 44.9662 172.929 47.3816L231.324 63.8986C236.625 65.3983 241.267 68.6414 244.499 73.1042L287.447 132.413C291.382 137.847 292.916 144.656 291.692 151.252L283.667 194.506Z" stroke="url(#paint23_linear_338_1240)" stroke-opacity="0.2"/>
<path opacity="0.362319" d="M290.836 191.007C289.494 201.017 282.146 209.177 272.331 211.558L230.069 221.814C223.537 223.399 216.641 222.231 210.996 218.583L150.394 179.428C145.746 176.425 142.252 171.937 140.48 166.695L121.316 110.001C118.48 101.611 120.393 92.3431 126.319 85.7615L150.466 58.9436C156.392 52.362 165.409 49.491 174.049 51.4345L232.436 64.5673C237.835 65.7816 242.663 68.7876 246.136 73.096L291.411 129.273C295.629 134.506 297.511 141.242 296.618 147.904L290.836 191.007Z" stroke="url(#paint24_linear_338_1240)" stroke-opacity="0.2"/>
<path opacity="0.376812" d="M297.71 187.449C296.873 197.473 289.995 205.967 280.364 208.869L239.206 221.272C232.758 223.215 225.795 222.419 219.952 219.07L158.291 183.723C153.47 180.959 149.731 176.638 147.689 171.47L126.009 116.591C122.762 108.371 124.193 99.0396 129.755 92.1711L152.248 64.3947C157.81 57.5262 166.641 54.1857 175.356 55.6531L233.543 65.4496C239.023 66.3723 244.027 69.1308 247.733 73.2722L295.127 126.237C299.617 131.255 301.844 137.901 301.284 144.611L297.71 187.449Z" stroke="url(#paint25_linear_338_1240)" stroke-opacity="0.2"/>
<path opacity="0.391304" d="M304.284 183.85C303.952 193.863 297.557 202.664 288.138 206.074L248.191 220.536C241.846 222.833 234.836 222.412 228.812 219.372L166.323 187.837C161.34 185.322 157.365 181.181 155.056 176.099L130.995 123.143C127.347 115.113 128.296 105.743 133.48 98.6075L154.286 69.9705C159.47 62.8354 168.088 59.0372 176.852 60.0256L234.652 66.5444C240.199 67.17 245.365 69.671 249.297 73.6332L298.599 123.319C303.352 128.108 305.918 134.645 305.694 141.389L304.284 183.85Z" stroke="url(#paint26_linear_338_1240)" stroke-opacity="0.2"/>
<path opacity="0.405797" d="M310.563 180.229C310.731 190.203 304.834 199.283 295.654 203.187L257.017 219.616C250.796 222.262 243.758 222.219 237.57 219.498L174.481 191.763C169.349 189.506 165.145 185.557 162.573 180.575L136.271 129.639C132.233 121.819 132.7 112.435 137.493 105.054L156.585 75.6552C161.378 68.2746 169.761 64.0316 178.547 64.5398L235.777 67.85C241.375 68.1737 246.692 70.4077 250.841 74.1789L301.84 120.532C306.842 125.079 309.744 131.491 309.857 138.25L310.563 180.229Z" stroke="url(#paint27_linear_338_1240)" stroke-opacity="0.2"/>
<path opacity="0.42029" d="M316.547 176.601C317.21 186.512 311.823 195.843 302.908 200.224L265.676 218.523C259.597 221.511 252.552 221.848 246.215 219.456L182.753 195.494C177.483 193.505 173.06 189.76 170.228 184.891L141.829 136.063C137.414 128.473 137.399 119.1 141.79 111.495L159.146 81.4329C163.537 73.8284 171.661 69.155 180.442 69.1831L236.928 69.3636C242.561 69.3816 248.015 71.3398 252.373 74.9085L304.856 117.888C310.096 122.18 313.326 128.449 313.778 135.208L316.547 176.601Z" stroke="url(#paint28_linear_338_1240)" stroke-opacity="0.2"/>
<path opacity="0.434783" d="M322.239 172.984C323.391 182.807 318.524 192.359 309.9 197.201L274.16 217.267C268.242 220.59 261.211 221.309 254.743 219.252L191.127 199.027C185.734 197.313 181.101 193.784 178.015 189.041L147.664 142.4C142.885 135.056 142.391 125.72 146.369 117.914L161.974 87.2876C165.951 79.4814 173.795 74.3931 182.544 73.9428L238.118 71.0821C243.769 70.7912 249.347 72.4654 253.903 75.8204L307.659 115.399C313.124 119.423 316.675 125.534 317.466 132.275L322.239 172.984Z" stroke="url(#paint29_linear_338_1240)" stroke-opacity="0.2"/>
<path opacity="0.449275" d="M327.644 169.394C329.277 179.104 324.939 188.848 316.63 194.131L282.462 215.86C276.723 219.509 269.726 220.609 263.144 218.896L199.591 202.356C194.089 200.924 189.256 197.624 185.92 193.019L153.766 148.634C148.638 141.555 147.67 132.281 151.225 124.296L165.068 93.2035C168.624 85.2183 176.164 79.7321 184.856 78.8064L239.356 73.0019C245.009 72.3998 250.696 73.7826 255.442 76.9133L310.259 113.076C315.936 116.82 319.8 122.756 320.928 129.463L327.644 169.394Z" stroke="url(#paint30_linear_338_1240)" stroke-opacity="0.2"/>
<path opacity="0.463768" d="M332.766 165.848C334.871 175.42 331.068 185.327 323.099 191.032L290.576 214.313C285.035 218.28 278.092 219.759 271.415 218.396L208.133 205.479C202.536 204.336 197.514 201.274 193.936 196.821L160.129 154.752C154.667 147.954 153.229 138.766 156.354 130.625L168.43 99.1652C171.556 91.0242 178.772 85.1578 187.38 83.7614L240.653 75.119C246.292 74.2042 252.073 75.2887 256.997 78.1848L312.668 110.929C318.542 114.384 322.711 120.129 324.175 126.784L332.766 165.848Z" stroke="url(#paint31_linear_338_1240)" stroke-opacity="0.2"/>
<path opacity="0.478261" d="M337.61 162.36C340.177 171.772 336.916 181.811 329.306 187.917L298.495 212.638C293.169 216.912 286.301 218.769 279.548 217.761L216.742 208.391C211.064 207.544 205.864 204.73 202.049 200.44L166.742 160.738C160.961 154.238 159.061 145.16 161.749 136.886L172.059 105.157C174.747 96.8835 181.62 90.656 190.118 88.7949L242.018 77.4284C247.626 76.2003 253.487 76.9803 258.578 79.6322L314.897 108.968C320.953 112.123 325.418 117.662 327.215 124.249L337.61 162.36Z" stroke="url(#paint32_linear_338_1240)" stroke-opacity="0.2"/>
<path opacity="0.492754" d="M342.184 158.947C345.202 168.176 342.485 178.316 335.257 184.8L306.217 210.848C301.123 215.417 294.35 217.648 287.538 217L225.405 211.091C219.662 210.545 214.295 207.989 210.251 203.875L173.596 166.581C167.513 160.392 165.158 151.448 167.404 143.066L175.952 111.163C178.198 102.781 184.71 96.2125 193.072 93.8943L243.464 79.9247C249.023 78.3835 254.948 78.8536 260.195 81.2522L316.959 107.202C323.182 110.047 327.932 115.365 330.059 121.868L342.184 158.947Z" stroke="url(#paint33_linear_338_1240)" stroke-opacity="0.2"/>
<path opacity="0.507246" d="M346.495 155.622C349.951 164.646 347.78 174.859 340.952 181.697L313.735 208.954C308.89 213.806 302.233 216.406 295.381 216.122L234.109 213.577C228.316 213.336 222.795 211.049 218.53 207.121L180.679 172.268C174.312 166.405 171.511 157.617 173.31 149.151L180.108 117.168C181.908 108.702 188.041 101.814 196.243 99.0473L244.997 82.6025C250.491 80.7493 256.465 80.9048 261.855 83.0413L318.865 105.638C325.24 108.165 330.264 113.248 332.717 119.651L346.495 155.622Z" stroke="url(#paint34_linear_338_1240)" stroke-opacity="0.2"/>
<path opacity="0.521739" d="M350.55 152.401C354.431 161.199 352.806 171.453 346.397 178.621L321.046 206.969C316.466 212.092 309.944 215.055 303.073 215.136L242.842 215.848C237.014 215.917 231.353 213.906 226.874 210.176L187.98 177.786C181.346 172.262 178.11 163.654 179.46 155.127L184.524 123.159C185.874 114.632 191.612 107.446 199.628 104.241L246.628 85.4554C252.04 83.2921 258.046 83.1291 263.567 84.9956L320.63 104.285C327.14 106.486 332.427 111.319 335.2 117.606L350.55 152.401Z" stroke="url(#paint35_linear_338_1240)" stroke-opacity="0.2"/>
<path opacity="0.536232" d="M354.358 149.296C358.649 157.847 357.57 168.114 351.595 175.586L328.149 204.905C323.848 210.284 317.482 213.603 310.61 214.052L251.592 217.904C245.745 218.286 239.955 216.56 235.273 213.039L195.487 183.125C188.605 177.951 184.945 169.544 185.845 160.982L189.193 129.119C190.093 120.556 195.422 113.094 203.229 109.464L248.365 88.4764C253.677 86.006 259.699 85.5213 265.339 87.1101L322.266 103.149C328.895 105.016 334.431 109.587 337.52 115.742L354.358 149.296Z" stroke="url(#paint36_linear_338_1240)" stroke-opacity="0.2"/>
<path opacity="0.550725" d="M357.93 146.32C362.616 154.605 362.079 164.854 356.553 172.604L335.041 202.775C331.034 208.394 324.843 212.063 317.99 212.879L260.347 219.746C254.498 220.442 248.594 219.008 243.716 215.707L203.188 188.275C196.078 183.462 192.006 175.278 192.455 166.703L194.115 135.035C194.564 126.461 199.469 118.747 207.044 114.704L250.217 91.6586C255.413 88.8848 261.435 88.076 267.179 89.3803L323.789 102.234C330.519 103.763 336.292 108.058 339.69 114.066L357.93 146.32Z" stroke="url(#paint37_linear_338_1240)" stroke-opacity="0.2"/>
<path opacity="0.565217" d="M361.276 143.486C366.339 151.486 366.339 161.688 361.276 169.689L341.72 200.59C338.021 206.435 332.024 210.444 325.21 211.627L269.093 221.374C263.258 222.387 257.254 221.253 252.191 218.18L211.069 193.226C203.75 188.784 199.28 180.843 199.28 172.281V140.894C199.28 132.332 203.75 124.391 211.069 119.949L252.191 94.9946C257.254 91.9221 263.258 90.7876 269.094 91.801L325.21 101.547C332.024 102.731 338.021 106.74 341.72 112.584L361.276 143.486Z" stroke="url(#paint38_linear_338_1240)" stroke-opacity="0.2"/>
<path opacity="0.57971" d="M364.405 140.804C369.829 148.503 370.359 158.629 365.77 166.853L348.186 198.364C344.808 204.417 339.024 208.756 332.267 210.306L277.82 222.79C272.016 224.121 265.925 223.292 260.687 220.459L219.117 197.97C211.608 193.908 206.755 186.229 206.309 177.703L204.683 146.681C204.236 138.156 208.26 130.012 215.303 125.187L254.294 98.4761C259.207 95.1104 265.178 93.6495 271.09 94.3665L326.544 101.092C333.425 101.926 339.631 105.637 343.623 111.304L364.405 140.804Z" stroke="url(#paint39_linear_338_1240)" stroke-opacity="0.2"/>
<path opacity="0.594203" d="M367.331 138.286C373.097 145.667 374.15 155.689 370.045 164.107L354.44 196.109C351.395 202.353 345.842 207.011 339.163 208.924L286.516 223.998C280.759 225.647 274.596 225.129 269.194 222.543L227.319 202.499C219.641 198.824 214.421 191.427 213.531 182.961L210.318 152.386C209.428 143.92 212.996 135.599 219.742 130.408L256.535 102.095C261.281 98.443 267.201 96.6556 273.176 97.0711L327.806 100.87C334.736 101.352 341.137 104.754 345.413 110.229L367.331 138.286Z" stroke="url(#paint40_linear_338_1240)" stroke-opacity="0.2"/>
<path opacity="0.608696" d="M370.065 135.942C376.154 142.989 377.72 152.879 374.107 161.463L360.482 193.836C357.781 200.254 352.477 205.219 345.894 207.491L295.169 225C289.475 226.965 283.256 226.764 277.701 224.435L235.66 206.807C227.834 203.525 222.263 196.427 220.935 188.045L216.176 157.994C214.848 149.612 217.953 141.14 224.382 135.601L258.918 105.844C263.482 101.912 269.334 99.7987 275.356 99.9084L329.01 100.885C335.972 101.012 342.551 104.095 347.103 109.364L370.065 135.942Z" stroke="url(#paint41_linear_338_1240)" stroke-opacity="0.2"/>
<path opacity="0.623188" d="M372.619 133.78C379.01 140.48 381.079 150.211 377.965 158.931L366.314 191.558C363.967 198.13 358.928 203.39 352.462 206.017L303.767 225.8C298.153 228.08 291.894 228.2 286.197 226.135L244.125 210.887C236.171 208.004 230.267 201.222 228.508 192.947L222.248 163.495C220.489 155.22 223.124 146.623 229.218 140.755L261.45 109.712C265.815 105.509 271.582 103.072 277.638 102.872L330.17 101.138C337.145 100.908 343.887 103.664 348.705 108.713L372.619 133.78Z" stroke="url(#paint42_linear_338_1240)" stroke-opacity="0.2"/>
<path opacity="0.637681" d="M375.005 131.809C381.679 138.149 384.237 147.694 381.627 156.522L371.937 189.286C369.953 195.994 365.197 201.534 358.866 204.51L312.298 226.402C306.782 228.995 300.497 229.439 294.671 227.647L252.699 214.734C244.639 212.254 238.42 205.804 236.238 197.658L228.526 168.878C226.344 160.733 228.503 152.037 234.244 145.86L264.136 113.691C268.285 109.225 273.95 106.467 280.024 105.955L331.299 101.63C338.27 101.042 345.159 103.462 350.231 108.279L375.005 131.809Z" stroke="url(#paint43_linear_338_1240)" stroke-opacity="0.2"/>
<path opacity="0.652174" d="M377.238 130.036C384.175 136.004 387.208 145.339 385.104 154.243L377.356 187.033C375.743 193.856 371.285 199.662 365.108 202.98L320.754 226.812C315.351 229.715 309.056 230.486 303.113 228.973L261.368 218.345C253.223 216.272 246.709 210.167 244.112 202.174L235.001 174.133C232.404 166.139 234.085 157.372 239.456 150.907L266.982 117.772C270.901 113.054 276.446 109.978 282.523 109.151L332.415 102.36C339.362 101.415 346.382 103.491 351.697 108.064L377.238 130.036Z" stroke="url(#paint44_linear_338_1240)" stroke-opacity="0.2"/>
<path opacity="0.666667" d="M379.331 128.468C386.508 134.053 390.001 143.153 388.404 152.105L382.572 184.808C381.339 191.727 377.193 197.783 371.189 201.436L329.122 227.035C323.85 230.244 317.562 231.344 311.514 230.117L270.118 221.717C261.908 220.051 255.119 214.307 252.117 206.486L241.662 179.25C238.66 171.429 239.862 162.617 244.848 155.886L269.99 121.945C273.664 116.986 279.073 113.596 285.138 112.452L333.529 103.328C340.435 102.026 347.568 103.752 353.115 108.068L379.331 128.468Z" stroke="url(#paint45_linear_338_1240)" stroke-opacity="0.2"/>
<path opacity="0.681159" d="M381.298 127.111C388.694 132.303 392.63 141.145 391.541 150.115L387.592 182.624C386.743 189.617 382.925 195.906 377.112 199.886L337.394 227.078C332.269 230.586 326.003 232.018 319.863 231.082L278.933 224.847C270.681 223.589 263.636 218.217 260.241 210.591L248.5 184.219C245.104 176.593 245.825 167.763 250.413 160.789L273.167 126.2C276.58 121.011 281.836 117.312 287.873 115.852L334.657 104.531C341.504 102.874 348.733 104.244 354.498 108.293L381.298 127.111Z" stroke="url(#paint46_linear_338_1240)" stroke-opacity="0.2"/>
<path opacity="0.695652" d="M383.152 125.968C390.743 130.761 395.105 139.322 394.521 148.281L392.418 180.49C391.958 187.536 388.48 194.042 382.876 198.338L345.558 226.946C340.596 230.75 334.369 232.513 328.151 231.874L287.797 227.733C279.523 226.884 272.244 221.895 268.468 214.484L255.5 189.034C251.724 181.622 251.966 172.802 256.143 165.609L276.512 130.528C279.651 125.122 284.737 121.12 290.73 119.342L335.81 105.966C342.58 103.957 349.888 104.967 355.859 108.737L383.152 125.968Z" stroke="url(#paint47_linear_338_1240)" stroke-opacity="0.2"/>
<path opacity="0.710145" d="M384.909 125.045C392.674 129.431 397.442 137.691 397.358 146.608L397.058 178.417C396.991 185.495 393.866 192.199 388.488 196.801L353.607 226.648C348.825 230.74 342.653 232.834 336.369 232.498L296.697 230.377C288.422 229.934 280.931 225.338 276.787 218.162L262.656 193.686C258.513 186.509 258.278 177.724 262.032 170.336L280.031 134.918C282.882 129.308 287.782 125.01 293.716 122.915L337.006 107.631C343.681 105.274 351.048 105.92 357.212 109.401L384.909 125.045Z" stroke="url(#paint48_linear_338_1240)" stroke-opacity="0.2"/>
<path opacity="0.724638" d="M386.58 124.344C394.496 128.318 399.651 136.256 400.061 145.104L401.515 176.414C401.843 183.503 399.083 190.386 393.947 195.282L361.529 226.192C356.944 230.563 350.843 232.989 344.508 232.959L305.615 232.777C297.36 232.739 289.679 228.545 285.183 221.621L269.953 198.169C265.456 191.245 264.749 182.523 268.072 174.965L283.724 139.361C286.274 133.561 290.971 128.975 296.83 126.564L338.253 109.52C344.815 106.82 352.226 107.098 358.567 110.282L386.58 124.344Z" stroke="url(#paint49_linear_338_1240)" stroke-opacity="0.2"/>
<path opacity="0.73913" d="M388.182 123.868C396.226 127.426 401.746 135.023 402.644 143.773L405.796 174.492C406.522 181.568 404.137 188.611 399.26 193.79L369.319 225.584C364.945 230.228 358.933 232.983 352.559 233.264L314.54 234.936C306.324 235.298 298.476 231.514 293.642 224.861L277.379 202.477C272.546 195.824 271.372 187.19 274.255 179.489L287.594 143.847C289.83 137.872 294.308 133.005 300.077 130.281L339.568 111.63C346 108.592 353.435 108.5 359.94 111.377L388.182 123.868Z" stroke="url(#paint50_linear_338_1240)" stroke-opacity="0.2"/>
<path opacity="0.753623" d="M389.728 123.616C397.878 126.755 403.74 133.995 405.116 142.62L409.908 172.659C411.032 179.701 409.031 186.883 404.429 192.33L376.967 224.834C372.821 229.742 366.913 232.824 360.516 233.418L323.455 236.856C315.3 237.613 307.306 234.244 302.151 227.879L284.924 206.605C279.769 200.24 278.137 191.72 280.572 183.901L291.641 148.364C293.551 142.23 297.795 137.092 303.457 134.057L340.961 113.953C347.246 110.584 354.687 110.12 361.341 112.683L389.728 123.616Z" stroke="url(#paint51_linear_338_1240)" stroke-opacity="0.2"/>
<path opacity="0.768116" d="M391.233 123.591C399.465 126.31 405.648 133.176 407.491 141.648L413.86 170.923C415.379 177.908 413.772 185.209 409.459 190.911L384.467 223.951C380.564 229.112 374.776 232.519 368.369 233.429L332.346 238.54C324.271 239.686 316.155 236.738 310.698 230.677L292.574 210.548C287.116 204.487 285.033 196.107 287.017 188.196L295.865 152.905C297.439 146.628 301.432 141.228 306.973 137.885L342.445 116.484C348.567 112.791 355.995 111.956 362.784 114.197L391.233 123.591Z" stroke="url(#paint52_linear_338_1240)" stroke-opacity="0.2"/>
<path opacity="0.782609" d="M392.711 123.792C401.003 126.089 407.482 132.568 409.779 140.86L417.657 169.291C419.571 176.198 418.364 183.597 414.356 189.538L391.813 222.945C388.166 228.349 382.516 232.076 376.114 233.303L341.201 239.991C333.225 241.519 325.01 238.996 319.267 233.253L300.318 214.303C294.575 208.561 292.051 200.346 293.579 192.37L300.268 157.457C301.494 151.054 305.222 145.404 310.626 141.758L344.033 119.215C349.974 115.206 357.372 114 364.279 115.913L392.711 123.792Z" stroke="url(#paint53_linear_338_1240)" stroke-opacity="0.2"/>
<path opacity="0.797101" d="M394.175 124.216C402.504 126.094 409.255 132.172 411.993 140.259L421.309 167.773C423.613 174.579 422.814 182.053 419.122 188.218L398.996 221.824C395.622 227.46 390.126 231.504 383.742 233.049L350.005 241.216C342.146 243.118 333.855 241.021 327.847 235.611L308.142 217.868C302.133 212.458 299.18 204.432 300.251 196.418L304.847 162.012C305.716 155.501 309.164 149.612 314.415 145.667L345.734 122.139C351.479 117.823 358.829 116.247 365.838 117.827L394.175 124.216Z" stroke="url(#paint54_linear_338_1240)" stroke-opacity="0.2"/>
<path opacity="0.811594" d="M395.639 124.863C403.982 126.323 410.979 131.989 414.142 139.847L424.821 166.374C427.511 173.057 427.124 180.585 423.763 186.956L406.012 220.6C402.923 226.454 397.597 230.81 391.246 232.675L358.743 242.219C351.02 244.486 342.677 242.816 336.422 237.751L316.033 221.241C309.778 216.175 306.409 208.361 307.022 200.336L309.6 166.559C310.103 159.959 313.256 153.844 318.34 149.605L347.559 125.247C353.092 120.635 360.375 118.691 367.471 119.933L395.639 124.863Z" stroke="url(#paint55_linear_338_1240)" stroke-opacity="0.2"/>
<path opacity="0.826087" d="M397.118 125.728C405.454 126.775 412.672 132.019 416.243 139.623L428.207 165.101C431.277 171.638 431.306 179.197 428.286 185.758L412.857 219.282C410.068 225.343 404.927 230.003 398.623 232.188L367.406 243.006C359.837 245.629 351.464 244.386 344.983 239.678L323.981 224.419C317.5 219.71 313.731 212.131 313.886 204.122L314.528 171.089C314.658 164.419 317.502 158.09 322.404 153.564L349.519 128.531C354.826 123.631 362.024 121.323 369.19 122.223L397.118 125.728Z" stroke="url(#paint56_linear_338_1240)" stroke-opacity="0.2"/>
<path opacity="0.84058" d="M398.621 126.809C406.928 127.446 414.341 132.261 418.302 139.59L431.471 163.959C434.913 170.329 435.361 177.897 432.695 184.629L419.524 217.881C417.047 224.134 412.108 229.094 405.866 231.598L375.978 243.585C368.579 246.553 360.199 245.735 353.514 241.394L331.971 227.403C325.285 223.062 321.13 215.739 320.831 207.773L319.626 175.593C319.374 168.872 321.897 162.343 326.602 157.537L351.622 131.98C356.688 126.805 363.783 124.137 371.003 124.691L398.621 126.809Z" stroke="url(#paint57_linear_338_1240)" stroke-opacity="0.2"/>
<path opacity="0.855072" d="M400.166 128.101C408.421 128.335 416.004 132.712 420.334 139.745L434.625 162.953C438.431 169.136 439.3 176.688 436.997 183.573L426.011 216.407C423.86 222.838 419.139 228.09 412.972 230.912L384.45 243.964C377.238 247.264 368.875 246.869 362.006 242.903L339.992 230.194C333.123 226.228 328.599 219.182 327.851 211.286L324.894 180.06C324.254 173.309 326.442 166.594 330.936 161.515L353.878 135.584C358.689 130.147 365.664 127.123 372.921 127.329L400.166 128.101Z" stroke="url(#paint58_linear_338_1240)" stroke-opacity="0.2"/>
<path opacity="0.869565" d="M401.762 129.598C409.946 129.436 417.671 133.372 422.35 140.088L437.678 162.089C441.839 168.062 443.128 175.576 441.197 182.594L432.315 214.872C430.501 221.467 426.013 227.002 419.936 230.141L392.811 244.15C385.801 247.771 377.476 247.794 370.445 244.212L348.033 232.792C341.002 229.21 336.128 222.461 334.936 214.662L330.326 184.482C329.294 177.721 331.134 170.837 335.402 165.493L356.295 139.335C360.838 133.647 367.675 130.274 374.953 130.129L401.762 129.598Z" stroke="url(#paint59_linear_338_1240)" stroke-opacity="0.2"/>
<path opacity="0.884058" d="M403.421 131.294C411.514 130.744 419.354 134.235 424.36 140.617L440.639 161.37C445.143 167.112 446.853 174.564 445.302 181.696L438.433 213.287C436.967 220.028 432.727 225.839 426.755 229.292L401.049 244.153C394.255 248.081 385.991 248.517 378.821 245.325L356.08 235.199C348.91 232.007 343.704 225.574 342.077 217.897L335.92 188.85C334.49 182.101 335.971 175.062 340 169.462L358.88 143.219C363.143 137.294 369.825 133.579 377.106 133.084L403.421 131.294Z" stroke="url(#paint60_linear_338_1240)" stroke-opacity="0.2"/>
<path opacity="0.898551" d="M405.156 133.184C413.137 132.255 421.066 135.299 426.376 141.329L443.518 160.799C448.353 166.291 450.481 173.658 449.318 180.882L444.363 211.662C443.257 218.534 439.28 224.611 433.426 228.376L409.155 243.983C402.591 248.203 394.409 249.045 387.124 246.248L364.122 237.419C356.836 234.622 351.319 228.522 349.265 220.993L341.672 193.155C339.84 186.44 340.951 179.263 344.727 173.416L361.641 147.226C365.611 141.079 372.121 137.028 379.39 136.182L405.156 133.184Z" stroke="url(#paint61_linear_338_1240)" stroke-opacity="0.2"/>
<path opacity="0.913043" d="M406.976 135.259C414.827 133.962 422.818 136.559 428.408 142.223L446.324 160.378C451.478 165.601 454.019 172.859 453.25 180.156L450.103 210.01C449.366 216.995 445.667 223.328 439.945 227.401L417.119 243.649C410.798 248.148 402.719 249.387 395.34 246.989L372.147 239.454C364.768 237.056 358.961 231.305 356.492 223.95L347.575 197.388C345.34 190.729 346.07 183.432 349.58 177.348L364.581 151.345C368.248 144.99 374.57 140.612 381.809 139.416L406.976 135.259Z" stroke="url(#paint62_linear_338_1240)" stroke-opacity="0.2"/>
<path opacity="0.927536" d="M408.891 137.512C416.594 135.858 424.622 138.009 430.465 143.292L449.068 160.111C454.525 165.045 457.476 172.171 457.105 179.518L455.652 208.34C455.295 215.421 451.889 222 446.312 226.377L424.932 243.162C418.866 247.924 410.912 249.552 403.462 247.556L380.145 241.308C372.696 239.312 366.621 233.925 363.749 226.767L353.625 201.542C350.985 194.963 351.324 187.562 354.555 181.251L367.707 155.564C371.06 149.016 377.179 144.32 384.372 142.776L408.891 137.512Z" stroke="url(#paint63_linear_338_1240)" stroke-opacity="0.2"/>
<path opacity="0.942029" d="M410.914 139.933C418.45 137.935 426.488 139.644 432.561 144.535L451.76 159.999C457.505 164.626 460.859 171.595 460.891 178.972L461.013 206.665C461.044 213.823 457.943 220.636 452.526 225.314L432.589 242.532C426.789 247.542 418.978 249.548 411.482 247.955L388.105 242.986C380.609 241.392 374.29 236.383 371.028 229.447L359.818 205.609C356.772 199.131 356.711 191.646 359.651 185.12L371.025 159.87C374.055 153.144 379.954 148.142 387.085 146.251L410.914 139.933Z" stroke="url(#paint64_linear_338_1240)" stroke-opacity="0.2"/>
<defs>
<linearGradient id="paint0_linear_338_1240" x1="33.7488" y1="225.914" x2="148.234" y2="-31.2236" gradientUnits="userSpaceOnUse">
<stop stop-color="white"/>
<stop offset="1" stop-color="#7AE500"/>
</linearGradient>
<linearGradient id="paint1_linear_338_1240" x1="45.7676" y1="228.951" x2="145.748" y2="-31.5069" gradientUnits="userSpaceOnUse">
<stop stop-color="white"/>
<stop offset="1" stop-color="#7AE500"/>
</linearGradient>
<linearGradient id="paint2_linear_338_1240" x1="57.8016" y1="231.599" x2="143.246" y2="-31.372" gradientUnits="userSpaceOnUse">
<stop stop-color="white"/>
<stop offset="1" stop-color="#7AE500"/>
</linearGradient>
<linearGradient id="paint3_linear_338_1240" x1="69.8293" y1="233.86" x2="140.751" y2="-30.8223" gradientUnits="userSpaceOnUse">
<stop stop-color="white"/>
<stop offset="1" stop-color="#7AE500"/>
</linearGradient>
<linearGradient id="paint4_linear_338_1240" x1="81.8298" y1="235.74" x2="138.285" y2="-29.8616" gradientUnits="userSpaceOnUse">
<stop stop-color="white"/>
<stop offset="1" stop-color="#7AE500"/>
</linearGradient>
<linearGradient id="paint5_linear_338_1240" x1="93.7811" y1="237.243" x2="135.87" y2="-28.4958" gradientUnits="userSpaceOnUse">
<stop stop-color="white"/>
<stop offset="1" stop-color="#7AE500"/>
</linearGradient>
<linearGradient id="paint6_linear_338_1240" x1="105.665" y1="238.375" x2="133.529" y2="-26.7316" gradientUnits="userSpaceOnUse">
<stop stop-color="white"/>
<stop offset="1" stop-color="#7AE500"/>
</linearGradient>
<linearGradient id="paint7_linear_338_1240" x1="117.462" y1="239.143" x2="131.283" y2="-24.5769" gradientUnits="userSpaceOnUse">
<stop stop-color="white"/>
<stop offset="1" stop-color="#7AE500"/>
</linearGradient>
<linearGradient id="paint8_linear_338_1240" x1="129.151" y1="239.557" x2="129.151" y2="-22.0407" gradientUnits="userSpaceOnUse">
<stop stop-color="white"/>
<stop offset="1" stop-color="#7AE500"/>
</linearGradient>
<linearGradient id="paint9_linear_338_1240" x1="140.715" y1="239.626" x2="127.154" y2="-19.133" gradientUnits="userSpaceOnUse">
<stop stop-color="white"/>
<stop offset="1" stop-color="#7AE500"/>
</linearGradient>
<linearGradient id="paint10_linear_338_1240" x1="152.136" y1="239.359" x2="125.31" y2="-15.8648" gradientUnits="userSpaceOnUse">
<stop stop-color="white"/>
<stop offset="1" stop-color="#7AE500"/>
</linearGradient>
<linearGradient id="paint11_linear_338_1240" x1="163.397" y1="238.768" x2="123.639" y2="-12.2485" gradientUnits="userSpaceOnUse">
<stop stop-color="white"/>
<stop offset="1" stop-color="#7AE500"/>
</linearGradient>
<linearGradient id="paint12_linear_338_1240" x1="174.48" y1="237.865" x2="122.157" y2="-8.29647" gradientUnits="userSpaceOnUse">
<stop stop-color="white"/>
<stop offset="1" stop-color="#7AE500"/>
</linearGradient>
<linearGradient id="paint13_linear_338_1240" x1="185.374" y1="236.663" x2="120.882" y2="-4.02319" gradientUnits="userSpaceOnUse">
<stop stop-color="white"/>
<stop offset="1" stop-color="#7AE500"/>
</linearGradient>
<linearGradient id="paint14_linear_338_1240" x1="196.06" y1="235.175" x2="119.828" y2="0.557153" gradientUnits="userSpaceOnUse">
<stop stop-color="white"/>
<stop offset="1" stop-color="#7AE500"/>
</linearGradient>
<linearGradient id="paint15_linear_338_1240" x1="206.527" y1="233.417" x2="119.01" y2="5.42906" gradientUnits="userSpaceOnUse">
<stop stop-color="white"/>
<stop offset="1" stop-color="#7AE500"/>
</linearGradient>
<linearGradient id="paint16_linear_338_1240" x1="216.761" y1="231.402" x2="118.443" y2="10.5761" gradientUnits="userSpaceOnUse">
<stop stop-color="white"/>
<stop offset="1" stop-color="#7AE500"/>
</linearGradient>
<linearGradient id="paint17_linear_338_1240" x1="226.75" y1="229.146" x2="118.138" y2="15.9824" gradientUnits="userSpaceOnUse">
<stop stop-color="white"/>
<stop offset="1" stop-color="#7AE500"/>
</linearGradient>
<linearGradient id="paint18_linear_338_1240" x1="236.485" y1="226.666" x2="118.107" y2="21.6298" gradientUnits="userSpaceOnUse">
<stop stop-color="white"/>
<stop offset="1" stop-color="#7AE500"/>
</linearGradient>
<linearGradient id="paint19_linear_338_1240" x1="245.955" y1="223.977" x2="118.362" y2="27.5011" gradientUnits="userSpaceOnUse">
<stop stop-color="white"/>
<stop offset="1" stop-color="#7AE500"/>
</linearGradient>
<linearGradient id="paint20_linear_338_1240" x1="255.15" y1="221.097" x2="118.91" y2="33.5781" gradientUnits="userSpaceOnUse">
<stop stop-color="white"/>
<stop offset="1" stop-color="#7AE500"/>
</linearGradient>
<linearGradient id="paint21_linear_338_1240" x1="264.066" y1="218.043" x2="119.761" y2="39.8422" gradientUnits="userSpaceOnUse">
<stop stop-color="white"/>
<stop offset="1" stop-color="#7AE500"/>
</linearGradient>
<linearGradient id="paint22_linear_338_1240" x1="272.692" y1="214.833" x2="120.922" y2="46.2746" gradientUnits="userSpaceOnUse">
<stop stop-color="white"/>
<stop offset="1" stop-color="#7AE500"/>
</linearGradient>
<linearGradient id="paint23_linear_338_1240" x1="281.025" y1="211.484" x2="122.397" y2="52.8562" gradientUnits="userSpaceOnUse">
<stop stop-color="white"/>
<stop offset="1" stop-color="#7AE500"/>
</linearGradient>
<linearGradient id="paint24_linear_338_1240" x1="289.06" y1="208.014" x2="124.194" y2="59.5677" gradientUnits="userSpaceOnUse">
<stop stop-color="white"/>
<stop offset="1" stop-color="#7AE500"/>
</linearGradient>
<linearGradient id="paint25_linear_338_1240" x1="296.794" y1="204.441" x2="126.315" y2="66.3899" gradientUnits="userSpaceOnUse">
<stop stop-color="white"/>
<stop offset="1" stop-color="#7AE500"/>
</linearGradient>
<linearGradient id="paint26_linear_338_1240" x1="304.222" y1="200.783" x2="128.762" y2="73.3034" gradientUnits="userSpaceOnUse">
<stop stop-color="white"/>
<stop offset="1" stop-color="#7AE500"/>
</linearGradient>
<linearGradient id="paint27_linear_338_1240" x1="311.346" y1="197.058" x2="131.539" y2="80.2891" gradientUnits="userSpaceOnUse">
<stop stop-color="white"/>
<stop offset="1" stop-color="#7AE500"/>
</linearGradient>
<linearGradient id="paint28_linear_338_1240" x1="318.164" y1="193.283" x2="134.643" y2="87.3275" gradientUnits="userSpaceOnUse">
<stop stop-color="white"/>
<stop offset="1" stop-color="#7AE500"/>
</linearGradient>
<linearGradient id="paint29_linear_338_1240" x1="324.677" y1="189.478" x2="138.076" y2="94.3997" gradientUnits="userSpaceOnUse">
<stop stop-color="white"/>
<stop offset="1" stop-color="#7AE500"/>
</linearGradient>
<linearGradient id="paint30_linear_338_1240" x1="330.886" y1="185.658" x2="141.834" y2="101.487" gradientUnits="userSpaceOnUse">
<stop stop-color="white"/>
<stop offset="1" stop-color="#7AE500"/>
</linearGradient>
<linearGradient id="paint31_linear_338_1240" x1="336.795" y1="181.842" x2="145.917" y2="108.57" gradientUnits="userSpaceOnUse">
<stop stop-color="white"/>
<stop offset="1" stop-color="#7AE500"/>
</linearGradient>
<linearGradient id="paint32_linear_338_1240" x1="342.407" y1="178.046" x2="150.318" y2="115.632" gradientUnits="userSpaceOnUse">
<stop stop-color="white"/>
<stop offset="1" stop-color="#7AE500"/>
</linearGradient>
<linearGradient id="paint33_linear_338_1240" x1="347.727" y1="174.287" x2="155.034" y2="122.655" gradientUnits="userSpaceOnUse">
<stop stop-color="white"/>
<stop offset="1" stop-color="#7AE500"/>
</linearGradient>
<linearGradient id="paint34_linear_338_1240" x1="352.759" y1="170.58" x2="160.058" y2="129.62" gradientUnits="userSpaceOnUse">
<stop stop-color="white"/>
<stop offset="1" stop-color="#7AE500"/>
</linearGradient>
<linearGradient id="paint35_linear_338_1240" x1="357.511" y1="166.942" x2="165.384" y2="136.512" gradientUnits="userSpaceOnUse">
<stop stop-color="white"/>
<stop offset="1" stop-color="#7AE500"/>
</linearGradient>
<linearGradient id="paint36_linear_338_1240" x1="361.989" y1="163.388" x2="171.004" y2="143.315" gradientUnits="userSpaceOnUse">
<stop stop-color="white"/>
<stop offset="1" stop-color="#7AE500"/>
</linearGradient>
<linearGradient id="paint37_linear_338_1240" x1="366.203" y1="159.932" x2="176.909" y2="150.011" gradientUnits="userSpaceOnUse">
<stop stop-color="white"/>
<stop offset="1" stop-color="#7AE500"/>
</linearGradient>
<linearGradient id="paint38_linear_338_1240" x1="370.159" y1="156.587" x2="183.09" y2="156.587" gradientUnits="userSpaceOnUse">
<stop stop-color="white"/>
<stop offset="1" stop-color="#7AE500"/>
</linearGradient>
<linearGradient id="paint39_linear_338_1240" x1="373.868" y1="153.368" x2="189.536" y2="163.029" gradientUnits="userSpaceOnUse">
<stop stop-color="white"/>
<stop offset="1" stop-color="#7AE500"/>
</linearGradient>
<linearGradient id="paint40_linear_338_1240" x1="377.34" y1="150.287" x2="196.238" y2="169.322" gradientUnits="userSpaceOnUse">
<stop stop-color="white"/>
<stop offset="1" stop-color="#7AE500"/>
</linearGradient>
<linearGradient id="paint41_linear_338_1240" x1="380.587" y1="147.356" x2="203.183" y2="175.454" gradientUnits="userSpaceOnUse">
<stop stop-color="white"/>
<stop offset="1" stop-color="#7AE500"/>
</linearGradient>
<linearGradient id="paint42_linear_338_1240" x1="383.618" y1="144.586" x2="210.358" y2="181.414" gradientUnits="userSpaceOnUse">
<stop stop-color="white"/>
<stop offset="1" stop-color="#7AE500"/>
</linearGradient>
<linearGradient id="paint43_linear_338_1240" x1="386.447" y1="141.987" x2="217.75" y2="187.189" gradientUnits="userSpaceOnUse">
<stop stop-color="white"/>
<stop offset="1" stop-color="#7AE500"/>
</linearGradient>
<linearGradient id="paint44_linear_338_1240" x1="389.085" y1="139.568" x2="225.348" y2="192.77" gradientUnits="userSpaceOnUse">
<stop stop-color="white"/>
<stop offset="1" stop-color="#7AE500"/>
</linearGradient>
<linearGradient id="paint45_linear_338_1240" x1="391.546" y1="137.34" x2="233.137" y2="198.147" gradientUnits="userSpaceOnUse">
<stop stop-color="white"/>
<stop offset="1" stop-color="#7AE500"/>
</linearGradient>
<linearGradient id="paint46_linear_338_1240" x1="393.843" y1="135.308" x2="241.103" y2="203.312" gradientUnits="userSpaceOnUse">
<stop stop-color="white"/>
<stop offset="1" stop-color="#7AE500"/>
</linearGradient>
<linearGradient id="paint47_linear_338_1240" x1="395.988" y1="133.481" x2="249.23" y2="208.257" gradientUnits="userSpaceOnUse">
<stop stop-color="white"/>
<stop offset="1" stop-color="#7AE500"/>
</linearGradient>
<linearGradient id="paint48_linear_338_1240" x1="397.997" y1="131.864" x2="257.506" y2="212.977" gradientUnits="userSpaceOnUse">
<stop stop-color="white"/>
<stop offset="1" stop-color="#7AE500"/>
</linearGradient>
<linearGradient id="paint49_linear_338_1240" x1="399.882" y1="130.463" x2="265.912" y2="217.464" gradientUnits="userSpaceOnUse">
<stop stop-color="white"/>
<stop offset="1" stop-color="#7AE500"/>
</linearGradient>
<linearGradient id="paint50_linear_338_1240" x1="401.66" y1="129.282" x2="274.436" y2="221.715" gradientUnits="userSpaceOnUse">
<stop stop-color="white"/>
<stop offset="1" stop-color="#7AE500"/>
</linearGradient>
<linearGradient id="paint51_linear_338_1240" x1="403.342" y1="128.324" x2="283.061" y2="225.726" gradientUnits="userSpaceOnUse">
<stop stop-color="white"/>
<stop offset="1" stop-color="#7AE500"/>
</linearGradient>
<linearGradient id="paint52_linear_338_1240" x1="404.945" y1="127.593" x2="291.772" y2="229.493" gradientUnits="userSpaceOnUse">
<stop stop-color="white"/>
<stop offset="1" stop-color="#7AE500"/>
</linearGradient>
<linearGradient id="paint53_linear_338_1240" x1="406.482" y1="127.089" x2="300.555" y2="233.016" gradientUnits="userSpaceOnUse">
<stop stop-color="white"/>
<stop offset="1" stop-color="#7AE500"/>
</linearGradient>
<linearGradient id="paint54_linear_338_1240" x1="407.968" y1="126.813" x2="309.392" y2="236.293" gradientUnits="userSpaceOnUse">
<stop stop-color="white"/>
<stop offset="1" stop-color="#7AE500"/>
</linearGradient>
<linearGradient id="paint55_linear_338_1240" x1="409.416" y1="126.767" x2="318.268" y2="239.325" gradientUnits="userSpaceOnUse">
<stop stop-color="white"/>
<stop offset="1" stop-color="#7AE500"/>
</linearGradient>
<linearGradient id="paint56_linear_338_1240" x1="410.842" y1="126.947" x2="327.171" y2="242.112" gradientUnits="userSpaceOnUse">
<stop stop-color="white"/>
<stop offset="1" stop-color="#7AE500"/>
</linearGradient>
<linearGradient id="paint57_linear_338_1240" x1="412.258" y1="127.354" x2="336.081" y2="244.656" gradientUnits="userSpaceOnUse">
<stop stop-color="white"/>
<stop offset="1" stop-color="#7AE500"/>
</linearGradient>
<linearGradient id="paint58_linear_338_1240" x1="413.679" y1="127.983" x2="344.988" y2="246.96" gradientUnits="userSpaceOnUse">
<stop stop-color="white"/>
<stop offset="1" stop-color="#7AE500"/>
</linearGradient>
<linearGradient id="paint59_linear_338_1240" x1="415.118" y1="128.833" x2="353.876" y2="249.028" gradientUnits="userSpaceOnUse">
<stop stop-color="white"/>
<stop offset="1" stop-color="#7AE500"/>
</linearGradient>
<linearGradient id="paint60_linear_338_1240" x1="416.588" y1="129.898" x2="362.73" y2="250.864" gradientUnits="userSpaceOnUse">
<stop stop-color="white"/>
<stop offset="1" stop-color="#7AE500"/>
</linearGradient>
<linearGradient id="paint61_linear_338_1240" x1="418.101" y1="131.174" x2="371.538" y2="252.474" gradientUnits="userSpaceOnUse">
<stop stop-color="white"/>
<stop offset="1" stop-color="#7AE500"/>
</linearGradient>
<linearGradient id="paint62_linear_338_1240" x1="419.669" y1="132.655" x2="380.286" y2="253.863" gradientUnits="userSpaceOnUse">
<stop stop-color="white"/>
<stop offset="1" stop-color="#7AE500"/>
</linearGradient>
<linearGradient id="paint63_linear_338_1240" x1="421.304" y1="134.335" x2="388.962" y2="255.038" gradientUnits="userSpaceOnUse">
<stop stop-color="white"/>
<stop offset="1" stop-color="#7AE500"/>
</linearGradient>
<linearGradient id="paint64_linear_338_1240" x1="423.018" y1="136.207" x2="397.554" y2="256.007" gradientUnits="userSpaceOnUse">
<stop stop-color="white"/>
<stop offset="1" stop-color="#7AE500"/>
</linearGradient>
</defs>
</svg>
