<svg width="143" height="26" viewBox="0 0 143 26" fill="none" xmlns="http://www.w3.org/2000/svg">
<path d="M11.3192 5.93369C11.2423 5.15792 10.9121 4.55525 10.3287 4.12569C9.74523 3.69613 8.95343 3.48135 7.95326 3.48135C7.27366 3.48135 6.69984 3.57752 6.23182 3.76986C5.76379 3.95579 5.40475 4.21545 5.15471 4.54884C4.91108 4.88223 4.78927 5.2605 4.78927 5.68365C4.77644 6.03627 4.85017 6.34402 5.01046 6.60688C5.17715 6.86974 5.40475 7.09735 5.69326 7.28969C5.98177 7.47561 6.31516 7.6391 6.69343 7.78015C7.0717 7.91479 7.47562 8.0302 7.90517 8.12636L9.6747 8.54951C10.5338 8.74185 11.3224 8.99831 12.0405 9.31887C12.7586 9.63944 13.3805 10.0337 13.9062 10.5018C14.4319 10.9698 14.839 11.5212 15.1275 12.1559C15.4225 12.7906 15.5731 13.5183 15.5795 14.3389C15.5731 15.5443 15.2654 16.5893 14.6563 17.4741C14.0536 18.3524 13.1817 19.0352 12.0405 19.5225C10.9057 20.0034 9.53686 20.2438 7.93403 20.2438C6.34402 20.2438 4.95917 20.0002 3.77948 19.5129C2.60621 19.0256 1.68939 18.3044 1.02902 17.3491C0.375063 16.3874 0.0320567 15.1981 0 13.7812H4.02952C4.0744 14.4415 4.26354 14.9929 4.59693 15.4353C4.93673 15.8713 5.38873 16.2014 5.95292 16.4258C6.52353 16.6438 7.16787 16.7528 7.88594 16.7528C8.59119 16.7528 9.20347 16.6502 9.72279 16.4451C10.2485 16.2399 10.6556 15.9546 10.9441 15.5892C11.2327 15.2237 11.3769 14.8038 11.3769 14.3293C11.3769 13.8869 11.2455 13.5151 10.9826 13.2138C10.7262 12.9124 10.3479 12.656 9.84781 12.4444C9.35414 12.2328 8.74827 12.0405 8.0302 11.8674L5.8856 11.3288C4.22507 10.9249 2.91395 10.2934 1.95225 9.43428C0.990551 8.57516 0.512907 7.41791 0.519318 5.96254C0.512907 4.77003 0.830268 3.72819 1.4714 2.83702C2.11895 1.94584 3.00692 1.25021 4.13531 0.750126C5.26371 0.250042 6.54597 0 7.98211 0C9.4439 0 10.7198 0.250042 11.8097 0.750126C12.906 1.25021 13.7587 1.94584 14.3678 2.83702C14.9769 3.72819 15.291 4.76041 15.3103 5.93369H11.3192Z" fill="white"/>
<path d="M18.2111 25.5043V5.19318H22.2502V7.67437H22.4329C22.6124 7.27686 22.8721 6.87295 23.2119 6.46262C23.5581 6.04589 24.0069 5.69968 24.5583 5.42399C25.1161 5.14189 25.8085 5.00084 26.6356 5.00084C27.7127 5.00084 28.7064 5.28294 29.6168 5.84714C30.5272 6.40492 31.2549 7.24801 31.7999 8.37641C32.3448 9.49839 32.6173 10.9057 32.6173 12.5983C32.6173 14.246 32.3513 15.6372 31.8191 16.772C31.2934 17.9004 30.5753 18.7564 29.6649 19.3398C28.7609 19.9168 27.7479 20.2053 26.6259 20.2053C25.8309 20.2053 25.1545 20.0739 24.5968 19.811C24.0454 19.5482 23.5934 19.218 23.2408 18.8205C22.8881 18.4166 22.6189 18.0094 22.4329 17.5991H22.3079V25.5043H18.2111ZM22.2214 12.579C22.2214 13.4574 22.3432 14.2235 22.5868 14.8775C22.8304 15.5315 23.1831 16.0412 23.6447 16.4066C24.1063 16.7656 24.6673 16.9452 25.3276 16.9452C25.9944 16.9452 26.5586 16.7624 27.0202 16.397C27.4819 16.0251 27.8313 15.5122 28.0685 14.8583C28.3121 14.1979 28.4339 13.4382 28.4339 12.579C28.4339 11.7263 28.3153 10.9762 28.0781 10.3287C27.8409 9.68111 27.4915 9.17462 27.0299 8.80917C26.5682 8.44373 26.0008 8.261 25.3276 8.261C24.6609 8.261 24.0967 8.43731 23.6351 8.78994C23.1799 9.14256 22.8304 9.64264 22.5868 10.2902C22.3432 10.9377 22.2214 11.7007 22.2214 12.579Z" fill="white"/>
<path d="M41.4118 20.2534C39.918 20.2534 38.6261 19.936 37.5361 19.3013C36.4526 18.6602 35.616 17.769 35.0261 16.6278C34.4363 15.4802 34.1413 14.1498 34.1413 12.6367C34.1413 11.1108 34.4363 9.77728 35.0261 8.63607C35.616 7.48844 36.4526 6.59726 37.5361 5.96254C38.6261 5.32141 39.918 5.00084 41.4118 5.00084C42.9056 5.00084 44.1943 5.32141 45.2778 5.96254C46.3678 6.59726 47.2076 7.48844 47.7975 8.63607C48.3873 9.77728 48.6823 11.1108 48.6823 12.6367C48.6823 14.1498 48.3873 15.4802 47.7975 16.6278C47.2076 17.769 46.3678 18.6602 45.2778 19.3013C44.1943 19.936 42.9056 20.2534 41.4118 20.2534ZM41.431 17.0798C42.1106 17.0798 42.678 16.8875 43.1332 16.5028C43.5884 16.1117 43.9315 15.5795 44.1623 14.9063C44.3995 14.2332 44.5181 13.467 44.5181 12.6079C44.5181 11.7488 44.3995 10.9826 44.1623 10.3094C43.9315 9.63623 43.5884 9.10409 43.1332 8.713C42.678 8.32191 42.1106 8.12636 41.431 8.12636C40.745 8.12636 40.168 8.32191 39.7 8.713C39.2384 9.10409 38.8889 9.63623 38.6517 10.3094C38.4209 10.9826 38.3055 11.7488 38.3055 12.6079C38.3055 13.467 38.4209 14.2332 38.6517 14.9063C38.8889 15.5795 39.2384 16.1117 39.7 16.5028C40.168 16.8875 40.745 17.0798 41.431 17.0798Z" fill="white"/>
<path d="M51.0672 19.9649V5.19318H55.0391V7.77054H55.1929C55.4622 6.85372 55.9142 6.16129 56.5489 5.69326C57.1837 5.21883 57.9146 4.98161 58.7416 4.98161C58.9468 4.98161 59.168 4.99443 59.4052 5.02007C59.6424 5.04572 59.8508 5.08098 60.0303 5.12586V8.76109C59.838 8.70339 59.5719 8.65209 59.2321 8.60721C58.8923 8.56234 58.5813 8.5399 58.2992 8.5399C57.6966 8.5399 57.158 8.67133 56.6836 8.93419C56.2155 9.19065 55.8437 9.54968 55.568 10.0113C55.2987 10.4729 55.1641 11.0051 55.1641 11.6077V19.9649H51.0672Z" fill="white"/>
<path d="M69.7762 5.19318V8.27062H62.9V5.19318H69.7762ZM62.9 1.65412H66.9968V15.4257C66.9968 15.8039 67.0545 16.0989 67.1699 16.3104C67.2853 16.5156 67.4456 16.6598 67.6508 16.7432C67.8624 16.8265 68.106 16.8682 68.3817 16.8682C68.574 16.8682 68.7664 16.8522 68.9587 16.8201C69.151 16.7817 69.2985 16.7528 69.4011 16.7336L70.0454 19.7822C69.8403 19.8463 69.5518 19.92 69.1799 20.0034C68.808 20.0931 68.356 20.1476 67.8239 20.1668C66.8366 20.2053 65.971 20.0739 65.2273 19.7726C64.49 19.4712 63.9162 19.0032 63.5059 18.3685C63.0955 17.7337 62.8936 16.9323 62.9 15.9642V3V1.65412Z" fill="white"/>
<path d="M72.8392 19.9649V0.269276H76.936V7.67437H77.061C77.2406 7.27686 77.5002 6.87295 77.84 6.46262C78.1862 6.04589 78.635 5.69968 79.1864 5.42399C79.7442 5.14189 80.4366 5.00084 81.2637 5.00084C82.3408 5.00084 83.3345 5.28294 84.2449 5.84714C85.1553 6.40492 85.883 7.24801 86.428 8.37641C86.973 9.49839 87.2454 10.9057 87.2454 12.5983C87.2454 14.246 86.9794 15.6372 86.4472 16.772C85.9215 17.9004 85.2034 18.7564 84.293 19.3398C83.389 19.9168 82.376 20.2053 81.254 20.2053C80.459 20.2053 79.7826 20.0739 79.2249 19.811C78.6735 19.5482 78.2215 19.218 77.8689 18.8205C77.5162 18.4166 77.247 18.0094 77.061 17.5991H76.8783V19.9649H72.8392ZM76.8495 12.579C76.8495 13.4574 76.9713 14.2235 77.2149 14.8775C77.4585 15.5315 77.8112 16.0412 78.2728 16.4066C78.7344 16.7656 79.2954 16.9452 79.9557 16.9452C80.6225 16.9452 81.1867 16.7624 81.6483 16.397C82.11 16.0251 82.4594 15.5122 82.6966 14.8583C82.9402 14.1979 83.062 13.4382 83.062 12.579C83.062 11.7263 82.9434 10.9762 82.7062 10.3287C82.469 9.68111 82.1196 9.17462 81.658 8.80917C81.1963 8.44373 80.6289 8.261 79.9557 8.261C79.289 8.261 78.7248 8.43731 78.2632 8.78994C77.8079 9.14256 77.4585 9.64264 77.2149 10.2902C76.9713 10.9377 76.8495 11.7007 76.8495 12.579Z" fill="white"/>
<path d="M96.6533 20.2534C95.1594 20.2534 93.8675 19.936 92.7776 19.3013C91.6941 18.6602 90.8574 17.769 90.2676 16.6278C89.6777 15.4802 89.3828 14.1498 89.3828 12.6367C89.3828 11.1108 89.6777 9.77728 90.2676 8.63607C90.8574 7.48844 91.6941 6.59726 92.7776 5.96254C93.8675 5.32141 95.1594 5.00084 96.6533 5.00084C98.1471 5.00084 99.4358 5.32141 100.519 5.96254C101.609 6.59726 102.449 7.48844 103.039 8.63607C103.629 9.77728 103.924 11.1108 103.924 12.6367C103.924 14.1498 103.629 15.4802 103.039 16.6278C102.449 17.769 101.609 18.6602 100.519 19.3013C99.4358 19.936 98.1471 20.2534 96.6533 20.2534ZM96.6725 17.0798C97.3521 17.0798 97.9195 16.8875 98.3747 16.5028C98.8299 16.1117 99.1729 15.5795 99.4037 14.9063C99.641 14.2332 99.7596 13.467 99.7596 12.6079C99.7596 11.7488 99.641 10.9826 99.4037 10.3094C99.1729 9.63623 98.8299 9.10409 98.3747 8.713C97.9195 8.32191 97.3521 8.12636 96.6725 8.12636C95.9865 8.12636 95.4095 8.32191 94.9415 8.713C94.4798 9.10409 94.1304 9.63623 93.8932 10.3094C93.6624 10.9826 93.547 11.7488 93.547 12.6079C93.547 13.467 93.6624 14.2332 93.8932 14.9063C94.1304 15.5795 94.4798 16.1117 94.9415 16.5028C95.4095 16.8875 95.9865 17.0798 96.6725 17.0798Z" fill="white"/>
<path d="M109.482 5.19318L112.194 10.3575L114.974 5.19318H119.176L114.897 12.579L119.292 19.9649H115.108L112.194 14.8583L109.328 19.9649H105.097L109.482 12.579L105.251 5.19318H109.482Z" fill="white"/>
<path d="M126.524 20.2053C125.402 20.2053 124.385 19.9168 123.475 19.3398C122.571 18.7564 121.853 17.9004 121.321 16.772C120.795 15.6372 120.532 14.246 120.532 12.5983C120.532 10.9057 120.805 9.49839 121.35 8.37641C121.895 7.24801 122.619 6.40492 123.523 5.84714C124.434 5.28294 125.431 5.00084 126.514 5.00084C127.341 5.00084 128.03 5.14189 128.582 5.42399C129.139 5.69968 129.588 6.04589 129.928 6.46262C130.274 6.87295 130.537 7.27686 130.717 7.67437H130.842V0.269276H134.929V19.9649H130.89V17.5991H130.717C130.524 18.0094 130.252 18.4166 129.899 18.8205C129.553 19.218 129.101 19.5482 128.543 19.811C127.992 20.0739 127.319 20.2053 126.524 20.2053ZM127.822 16.9452C128.482 16.9452 129.04 16.7656 129.495 16.4066C129.957 16.0412 130.31 15.5315 130.553 14.8775C130.803 14.2235 130.928 13.4574 130.928 12.579C130.928 11.7007 130.806 10.9377 130.563 10.2902C130.319 9.64264 129.967 9.14256 129.505 8.78994C129.043 8.43731 128.482 8.261 127.822 8.261C127.149 8.261 126.581 8.44373 126.12 8.80917C125.658 9.17462 125.309 9.68111 125.072 10.3287C124.834 10.9762 124.716 11.7263 124.716 12.579C124.716 13.4382 124.834 14.1979 125.072 14.8583C125.315 15.5122 125.665 16.0251 126.12 16.397C126.581 16.7624 127.149 16.9452 127.822 16.9452Z" fill="white"/>
<path d="M140.692 20.2149C140.057 20.2149 139.512 19.9905 139.057 19.5417C138.608 19.0865 138.384 18.5416 138.384 17.9069C138.384 17.2785 138.608 16.74 139.057 16.2912C139.512 15.8424 140.057 15.618 140.692 15.618C141.307 15.618 141.846 15.8424 142.308 16.2912C142.769 16.74 143 17.2785 143 17.9069C143 18.33 142.891 18.7179 142.673 19.0705C142.461 19.4167 142.183 19.6956 141.836 19.9072C141.49 20.1124 141.109 20.2149 140.692 20.2149Z" fill="#88FF01"/>
</svg>
